# xmcd
#
# Track frame offsets:
#	150
#	13143
#	28591
#	40751
#	54062
#	65782
#	76148
#	89301
#	101975
#	112127
#	122996
#	133675
#
# Disc length: 1947
#
# Revision: 1
# Processed by: cddbd v1.5.1PL0 Copyright (c) Steve Scherf et al.
# Submitted via: CDex 1.50
# Normalized: r0:DSETVAR1,TDELIM( - )
#
DISCID=a207990c
DTITLE=Various Artist - Country No. 1 HITS
DYEAR=2003
DGENRE=Country
TTITLE0=Glen Campbell - Rhinestone Cowboy (Live)
TTITLE1=Conway Twitty - Touch The Hand
TTITLE2=Slim Willett - Don't Let The Stars Get In Your Eyes
TTITLE3=Roy Clark - Come Live With Me
TTITLE4=Waylon Jennings - Crying
TTITLE5=Faron Young - Alone With You
TTITLE6=Hank Thompson - The Wild Side Of Life
TTITLE7=Lynn Anderson - Rose Garden
TTITLE8=Webb Pierce - I'm In The Jailhouse Now
TTITLE9=Joe Stampley - Soul Song
TTITLE10=Billy Walker - Charlie's Shoes
TTITLE11=Kitty Wells - One By One
EXTD=YEAR: 2003
EXTT0=
EXTT1=
EXTT2=
EXTT3=
EXTT4=
EXTT5=
EXTT6=
EXTT7=
EXTT8=
EXTT9=
EXTT10=
EXTT11=
PLAYORDER=
